<?xml version="1.0" encoding="UTF-8" standalone="no"?>
<!-- Created with Inkscape (http://www.inkscape.org/) -->

<svg width="132.29167mm" height="132.29167mm" viewBox="0 0 468.75001 468.75003" id="svg4692" version="1.1" xmlns="http://www.w3.org/2000/svg" xmlns:svg="http://www.w3.org/2000/svg" xmlns:rdf="http://www.w3.org/1999/02/22-rdf-syntax-ns#" xmlns:cc="http://creativecommons.org/ns#" xmlns:dc="http://purl.org/dc/elements/1.1/">
  <defs id="defs4694" />
  <metadata id="metadata4697">
    <rdf:RDF>
      <cc:Work rdf:about="">
        <dc:format>image/svg+xml</dc:format>
        <dc:type rdf:resource="http://purl.org/dc/dcmitype/StillImage" />
      </cc:Work>
    </rdf:RDF>
  </metadata>
  <g id="layer1" transform="translate(54.375019,-249.41573)">
    <rect style="fill:#ffffff;fill-rule:evenodd;stroke-width:10.3448;stroke-linecap:square" id="rect1" width="468.75" height="468.75" x="-54.375019" y="249.41573" rx="34.074509" ry="34.074509" />
    <g id="g2" transform="matrix(0.39167582,0,0,0.39167582,109.49833,247.56571)">
      <g id="g1">
        <g transform="matrix(3.7795276,0,0,3.7795276,-268.80803,-1580.8635)" id="g26406">
          <path id="path1122" d="m 168.61328,454.06836 -1.46094,2.5293 -101.861324,176.42968 -1.460938,2.5293 5.058594,2.91992 1.458984,-2.52929 101.861324,-176.42969 1.46094,-2.5293 z" style="color:#000000;fill:#000000;stroke-linecap:square" />
          <path id="path1128" d="m 208.03125,491.35547 -2.5293,1.45898 -176.429684,101.86133 -2.529297,1.46094 2.919922,5.05664 2.529297,-1.46094 176.429692,-101.86133 2.52929,-1.45898 z" style="color:#000000;fill:#000000;stroke-linecap:square" />
          <path id="path1074" d="m 13.96875,543.35352 v 5.83789 h 2.919922 203.722658 2.91992 v -5.83789 H 220.61133 16.888672 Z" style="color:#000000;fill:#000000;stroke-linecap:square" />
          <path id="path2819" d="m 29.464844,491.35547 -2.919922,5.05664 2.529297,1.45898 176.429691,101.86328 2.52929,1.45899 2.91993,-5.05664 -2.5293,-1.46094 L 31.994141,492.81445 Z" style="color:#000000;fill:#000000;stroke-linecap:square" />
          <path id="path1062" d="m 68.888672,454.07422 -5.058594,2.91992 1.460938,2.52734 101.861324,176.43164 1.46094,2.52735 5.05664,-2.91992 -1.46094,-2.52735 L 70.347656,456.60156 Z" style="color:#000000;fill:#000000;stroke-linecap:square" />
          <path id="path1080" d="m 115.85352,441.49219 v 2.91992 203.72266 2.91992 h 5.83984 v -2.91992 -203.72266 -2.91992 z" style="color:#000000;fill:#000000;stroke-linecap:square" />
          <path transform="matrix(0.26458333,0,0,0.26458333,13.968998,441.49269)" d="M 380.89453,1.4394531 A 394.87427,393.96809 0 0 0 1.1503906,395.29883 394.87427,393.96797 0 0 0 292.16211,775.54492 L 505.19922,16.666016 A 394.87427,393.96809 0 0 0 380.89453,1.4394531 Z" style="fill:#000000;stroke:#000000;stroke-width:2.34605;stroke-miterlimit:4;stroke-dasharray:none;stroke-opacity:1" id="path1020" />
          <g style="fill:#ffffff;stroke:none" id="g4803">
            <path d="m 115.85352,441.49219 v 2.64273 10.61951 a 91.297481,91.311025 0 0 1 5.83993,-0.26975 v -10.34976 -2.64273 z" style="color:#000000;fill:#ffffff;stroke:none;stroke-width:0.951346;stroke-linecap:square" id="path3537" />
            <path d="m 68.888673,454.07442 -5.058595,2.91972 1.460897,2.52749 6.266286,10.85361 a 91.297481,91.311025 0 0 1 4.963504,-3.08044 l -6.173259,-10.69288 z" style="color:#000000;fill:#ffffff;stroke:none;stroke-width:1;stroke-linecap:square" id="path1062-8" />
            <path d="m 29.465157,491.35557 -2.920235,5.05654 2.52956,1.45934 12.321217,7.11378 a 91.297481,91.311025 0 0 1 2.772436,-5.14232 L 31.994201,492.8144 Z" style="color:#000000;fill:#ffffff;stroke:none;stroke-width:1;stroke-linecap:square" id="path2819-0" />
            <path d="m 13.96875,543.35352 v 5.83789 h 2.742459 15.081779 a 91.297481,91.311025 0 0 1 -0.02585,-5.83789 H 16.711209 Z" style="color:#000000;fill:#ffffff;stroke:none;stroke-width:0.969198;stroke-linecap:square" id="path1074-3" />
            <path d="m 41.829382,587.31038 -12.757367,7.36545 -2.529046,1.46089 2.919719,5.05654 2.52956,-1.46089 12.661773,-7.31015 a 91.297481,91.311025 0 0 1 -2.824639,-5.11184 z" style="color:#000000;fill:#ffffff;stroke:none;stroke-width:1;stroke-linecap:square" id="path1128-6" />
            <path d="m 72.029039,621.35647 -6.738091,11.67113 -1.46087,2.52904 5.058595,2.92024 1.458833,-2.52956 6.626966,-11.47838 a 91.297481,91.311025 0 0 1 -4.945433,-3.11247 z" style="color:#000000;fill:#ffffff;stroke:none;stroke-width:1;stroke-linecap:square" id="path1122-1" />
          </g>
          <path id="path1066" d="m 123.02743,637.06339 a 91.297482,91.311026 0 1 1 0,-182.62205 91.297494,91.311026 0 1 1 0,182.62205 z" style="color:#000000;fill:#ffffff;fill-rule:evenodd;stroke-width:0.543085" />
          <g transform="translate(46.845027,420.43977)" id="g936-3">
            <path style="fill:#ffffff;fill-opacity:1;stroke:#000000;stroke-width:6.08831;stroke-linecap:square;stroke-miterlimit:4;stroke-dasharray:none;stroke-opacity:1" d="m 65.015791,119.54532 77.451669,69.32329" id="path20079-2" />
            <path style="fill:#ffffff;stroke:#000000;stroke-width:10.0887;stroke-linecap:square;stroke-opacity:1" d="M 79.701988,124.51614 10.666696,145.06579" id="path20081-5" />
            <path style="fill:#000000;fill-opacity:1;fill-rule:evenodd;stroke-width:6.70376" d="m 78.777412,125.80462 a 6.9129203,6.9129203 0 1 1 -13.809749,0 6.9129203,6.9129203 0 1 1 13.809749,0 z" id="path20083-9" />
          </g>
        </g>
      </g>
      <path style="font-weight:900;font-size:230.015px;line-height:0.9;font-family:Lovelo;-inkscape-font-specification:'Lovelo Heavy';text-align:end;letter-spacing:0px;word-spacing:0px;text-anchor:end;white-space:pre;fill-rule:evenodd;stroke-width:131.352;stroke-linecap:square" d="M -245.52781,1115.0114 V 950.55063 h -32.89214 v 65.78427 h -49.22321 v -65.78427 h -32.89215 v 164.46077 h 32.89215 v -65.7843 h 49.22321 v 65.7843 z m 116.15741,2.3001 c 113.167382,0 113.167382,-169.52105 0,-169.52105 -113.16738,0 -113.16738,169.52105 0,169.52105 z m 0,-34.0422 c -65.78429,0 -65.78429,-101.66665 0,-101.66665 65.784292,0 65.784292,101.66665 0,101.66665 z m 234.84535,31.7421 -38.182489,-67.8545 c 48.303149,-14.0309 42.552779,-96.60627 -16.10105,-96.60627 h -64.864229 v 164.46077 h 32.892144 v -62.7941 h 15.871035 l 33.12216,62.7941 z M 19.219326,983.44277 h 28.98189 c 22.311455,0 22.311455,36.80243 0,36.80243 h -28.98189 z m 93.386284,131.56863 h 37.26243 l 6.44042,-17.7112 h 54.51356 l 6.67043,17.7112 h 37.03242 L 185.29035,944.57024 h -3.45022 z m 55.66363,-48.5332 15.41101,-42.7828 14.95097,42.7828 z m 149.73993,51.9834 68.08444,-167.91097 h -37.95248 l -22.08143,55.89367 -11.73077,32.8921 -11.96078,-34.0422 -21.85142,-54.74357 h -37.95248 l 68.08444,167.91097 z m 167.2207,-1.1501 c 113.16738,0 113.16738,-169.52105 0,-169.52105 -113.16738,0 -113.16738,169.52105 0,169.52105 z m 0,-34.0422 c -65.78429,0 -65.78429,-101.66665 0,-101.66665 65.78429,0 65.78429,101.66665 0,101.66665 z m 93.1561,31.7421 h 40.02261 l 31.74207,-56.3537 31.51205,56.3537 h 38.87254 l -51.75338,-87.6358 44.85293,-77.05499 h -38.87254 l -24.6116,45.77299 -24.84162,-45.77299 h -39.7926 l 44.62291,77.05499 z" id="text1" aria-label="HoraVox" />
    </g>
  </g>
</svg>
